# xmcd
# 
# Track frame offsets:
#     150
#     24285
#     39312
#     63125
#     87150
#     104150
#     121477
#     143857
#     159657
#     187307
#     208025
#     226585
# 
# Disc length: 3637
# 
# Revision: 6
# Processed by: cddbd v1.5.2PL0 Copyright (c) Steve Scherf et al.
# Submitted via: fre:ac v1.1beta1pre5
# 
DISCID=a00e330c
DTITLE=Pinetop Perkins - Sweet Black Angel
DYEAR=1998
DGENRE=Blues
TTITLE0=Lend Me Your Love
TTITLE1=What's The Matter With You
TTITLE2=Five Long Years
TTITLE3=Down The Road I'll Go
TTITLE4=View From The Top
TTITLE5=Look On Yonder Wall
TTITLE6=Who's Ol' Muddy Shoes
TTITLE7=I'd Rather Quit Her Than Hit Her
TTITLE8=Rain
TTITLE9=Pinetop's Special
TTITLE10=How Long Blues
TTITLE11=Sweet Black Angel
EXTD=
EXTT0=
EXTT1=
EXTT2=
EXTT3=
EXTT4=
EXTT5=
EXTT6=
EXTT7=
EXTT8=
EXTT9=
EXTT10=
EXTT11=
PLAYORDER=
